# xmcd CD database file
#
# Track frame offsets:
#	150
#	67827
#	138520
#	207814
#
# Disc length: 3677 seconds
#
# Revision: 0
# Processed by: cddbd v1.5.2PL0 Copyright (c) Steve Scherf et al.
# Submitted via: CDex 1.70beta2
#
DISCID=320e5b04
DTITLE=Vari - Terra Acqua Aria Fuoco
DYEAR=1900
DGENRE=New Age
TTITLE0=Pomeriggio in campagna
TTITLE1=Ceppi sul fuoco
TTITLE2=Raffiche di vento sulla valle
TTITLE3=Onde sulla scogliera
EXTD=
EXTT0=
EXTT1=
EXTT2=
EXTT3=
PLAYORDER=
